{"title":"Lethal Target (1999) DVDRip XviD AC3-FWOLF","uid":9472764,"size":732362357,"categoryP":"video","categoryS":"movies","magnet":"?xt=urn:btih:13f271388d8092da6c2132a2be62308103a38990&amp;dn=Lethal+Target+%281999%29+DVDRip+XviD+AC3-FWOLF&amp;tr=udp%3A%2F%2Ftracker.openbittorrent.com%3A80&amp;tr=udp%3A%2F%2Fopen.demonii.com%3A1337&amp;tr=udp%3A%2F%2Ftracker.coppersurfer.tk%3A6969&amp;tr=udp%3A%2F%2Fexodus.desync.com%3A6969","seeders":1,"leechers":0,"uploader":"sakhslitsa","files":4,"time":1389620435,"description":" &lt;a href=&quot;http://www.imdb.com/title/tt0284260/&quot; rel=&quot;nofollow&quot; target=&quot;_NEW&quot;&gt;http://www.imdb.com/title/tt0284260/&lt;/a&gt;\n\n\nFormat : AVI\nFormat/Info : Audio Video Interleave\nFile size : 695 MiB\nDuration : 1h 33mn\nOverall bit rate mode : Variable\nOverall bit rate : 1 045 Kbps\nWriting library : VirtualDub build 32661/release\n\nVideo\nID : 0\nFormat : MPEG-4 Visual\nFormat profile : Advanced Simple@L5\nFormat settings, BVOP : 2\nFormat settings, QPel : No\nFormat settings, GMC : No warppoints\nFormat settings, Matrix : Default (H.263)\nMuxing mode : Packed bitstream\nCodec ID : XVID\nCodec ID/Hint : XviD\nDuration : 1h 33mn\nBit rate : 911 Kbps\nWidth : 544 pixels\nHeight : 400 pixels\nDisplay aspect ratio : 4:3\nFrame rate : 23.976 fps\nColor space : YUV\nChroma subsampling : 4:2:0\nBit depth : 8 bits\nScan type : Interlaced\nScan order : Bottom Field First\nCompression mode : Lossy\nBits/(Pixel*Frame) : 0.175\nStream size : 606 MiB (87%)\nWriting library : XviD 1.2.1 (UTC 2008-12-04)\n\nAudio\nID : 1\nFormat : MPEG Audio\nFormat version : Version 1\nFormat profile : Layer 3\nMode : Joint stereo\nCodec ID : 55\nCodec ID/Hint : MP3\nDuration : 1h 33mn\nBit rate mode : Variable\nBit rate : 121 Kbps\nNominal bit rate : 128 Kbps\nChannel(s) : 2 channels\nSampling rate : 48.0 KHz\nCompression mode : Lossy\nStream size : 80.5 MiB (12%)\nAlignment : Aligned on interleaves\nInterleave, duration : 24 ms (0.58 video frame)\nInterleave, preload duration : 355 ms\nWriting library : LAME3.99r\n\n\nGreetz To: tomcat-12 | Blacksheep | PsiX | CFR .....\n.....and all P2P Encoders and Groups.....","torrent":{"xt":"urn:btih:13f271388d8092da6c2132a2be62308103a38990","amp;dn":"Lethal+Target+%281999%29+DVDRip+XviD+AC3-FWOLF","amp;tr":["udp%3A%2F%2Ftracker.openbittorrent.com%3A80","udp%3A%2F%2Fopen.demonii.com%3A1337","udp%3A%2F%2Ftracker.coppersurfer.tk%3A6969","udp%3A%2F%2Fexodus.desync.com%3A6969"],"infoHash":"13f271388d8092da6c2132a2be62308103a38990","infoHashBuffer":{"type":"Buffer","data":[19,242,113,56,141,128,146,218,108,33,50,162,190,98,48,129,3,163,137,144]},"announce":[],"urlList":[]}}